<?xml version="1.0" encoding="UTF-8"?>
<svg viewBox="0 0 900 700" xmlns="http://www.w3.org/2000/svg">
  <defs>
    <linearGradient id="sc-bgGrad" x1="0%" y1="0%" x2="0%" y2="100%">
      <stop offset="0%" stop-color="#0F172A"/>
      <stop offset="100%" stop-color="#1E293B"/>
    </linearGradient>
    <marker id="sc-arrow-red" markerWidth="8" markerHeight="6" refX="8" refY="3" orient="auto">
      <polygon points="0 0, 8 3, 0 6" fill="#9B1C1C"/>
    </marker>
    <marker id="sc-arrow-blue" markerWidth="8" markerHeight="6" refX="8" refY="3" orient="auto">
      <polygon points="0 0, 8 3, 0 6" fill="#60A5FA"/>
    </marker>
    <marker id="sc-arrow-green" markerWidth="8" markerHeight="6" refX="8" refY="3" orient="auto">
      <polygon points="0 0, 8 3, 0 6" fill="#34D399"/>
    </marker>
  </defs>

  <!-- Background -->
  <rect width="900" height="700" fill="url(#sc-bgGrad)"/>

  <!-- Title Section -->
  <text x="450" y="40" text-anchor="middle" fill="#F8FAFC" font-size="26" font-weight="600" font-family="system-ui, -apple-system, sans-serif">Strategy Cascade</text>
  <rect x="350" y="50" width="200" height="3" fill="#9B1C1C" rx="1.5"/>

  <!-- Vision Layer -->
  <g transform="translate(300, 80)">
    <rect width="300" height="60" fill="#9B1C1C" rx="12"/>
    <text x="150" y="30" text-anchor="middle" fill="#FFFFFF" font-size="18" font-weight="600" font-family="system-ui, sans-serif">VISION</text>
    <text x="150" y="48" text-anchor="middle" fill="#FFFFFF" font-size="11" font-family="system-ui, sans-serif">10+ Year Aspirational State</text>
  </g>

  <!-- Arrow Vision to Mission -->
  <line x1="450" y1="140" x2="450" y2="160" stroke="#9B1C1C" stroke-width="2" marker-end="url(#sc-arrow-red)"/>

  <!-- Mission Layer -->
  <g transform="translate(275, 165)">
    <rect width="350" height="60" fill="#1E293B" stroke="#9B1C1C" stroke-width="2" rx="12"/>
    <text x="175" y="30" text-anchor="middle" fill="#F8FAFC" font-size="18" font-weight="600" font-family="system-ui, sans-serif">MISSION</text>
    <text x="175" y="48" text-anchor="middle" fill="#94A3B8" font-size="11" font-family="system-ui, sans-serif">Core Purpose and Value Proposition</text>
  </g>

  <!-- Arrow Mission to Goals -->
  <line x1="450" y1="225" x2="450" y2="245" stroke="#9B1C1C" stroke-width="2" marker-end="url(#sc-arrow-red)"/>

  <!-- Strategic Goals Layer -->
  <g transform="translate(200, 250)">
    <rect width="500" height="70" fill="#1E293B" stroke="#60A5FA" stroke-width="2" rx="12"/>
    <text x="250" y="28" text-anchor="middle" fill="#60A5FA" font-size="16" font-weight="600" font-family="system-ui, sans-serif">STRATEGIC GOALS</text>
    <text x="250" y="48" text-anchor="middle" fill="#94A3B8" font-size="11" font-family="system-ui, sans-serif">3-5 Year Measurable Outcomes</text>

    <!-- Goal Pillars -->
    <g transform="translate(20, 52)">
      <rect width="85" height="14" fill="#0F172A" stroke="#334155" stroke-width="1" rx="3"/>
      <text x="42" y="11" text-anchor="middle" fill="#94A3B8" font-size="8" font-family="system-ui, sans-serif">Excellence</text>
    </g>
    <g transform="translate(115, 52)">
      <rect width="85" height="14" fill="#0F172A" stroke="#334155" stroke-width="1" rx="3"/>
      <text x="42" y="11" text-anchor="middle" fill="#94A3B8" font-size="8" font-family="system-ui, sans-serif">Customer</text>
    </g>
    <g transform="translate(210, 52)">
      <rect width="85" height="14" fill="#0F172A" stroke="#334155" stroke-width="1" rx="3"/>
      <text x="42" y="11" text-anchor="middle" fill="#94A3B8" font-size="8" font-family="system-ui, sans-serif">Financial</text>
    </g>
    <g transform="translate(305, 52)">
      <rect width="85" height="14" fill="#0F172A" stroke="#334155" stroke-width="1" rx="3"/>
      <text x="42" y="11" text-anchor="middle" fill="#94A3B8" font-size="8" font-family="system-ui, sans-serif">Innovation</text>
    </g>
    <g transform="translate(400, 52)">
      <rect width="85" height="14" fill="#0F172A" stroke="#334155" stroke-width="1" rx="3"/>
      <text x="42" y="11" text-anchor="middle" fill="#94A3B8" font-size="8" font-family="system-ui, sans-serif">People</text>
    </g>
  </g>

  <!-- Arrow Goals to KPIs -->
  <line x1="450" y1="320" x2="450" y2="340" stroke="#60A5FA" stroke-width="2" marker-end="url(#sc-arrow-blue)"/>

  <!-- KPI Layer -->
  <g transform="translate(150, 345)">
    <rect width="600" height="65" fill="#1E293B" stroke="#34D399" stroke-width="2" rx="12"/>
    <text x="300" y="26" text-anchor="middle" fill="#34D399" font-size="16" font-weight="600" font-family="system-ui, sans-serif">KEY PERFORMANCE INDICATORS</text>
    <text x="300" y="44" text-anchor="middle" fill="#94A3B8" font-size="11" font-family="system-ui, sans-serif">Quarterly and Annual Metrics</text>

    <!-- KPI Examples -->
    <g transform="translate(30, 50)">
      <text x="0" y="10" fill="#64748B" font-size="9" font-family="system-ui, sans-serif">Revenue</text>
    </g>
    <g transform="translate(100, 50)">
      <text x="0" y="10" fill="#64748B" font-size="9" font-family="system-ui, sans-serif">NPS</text>
    </g>
    <g transform="translate(150, 50)">
      <text x="0" y="10" fill="#64748B" font-size="9" font-family="system-ui, sans-serif">OTD</text>
    </g>
    <g transform="translate(200, 50)">
      <text x="0" y="10" fill="#64748B" font-size="9" font-family="system-ui, sans-serif">Quality</text>
    </g>
    <g transform="translate(270, 50)">
      <text x="0" y="10" fill="#64748B" font-size="9" font-family="system-ui, sans-serif">Margin</text>
    </g>
    <g transform="translate(340, 50)">
      <text x="0" y="10" fill="#64748B" font-size="9" font-family="system-ui, sans-serif">Uptime</text>
    </g>
    <g transform="translate(410, 50)">
      <text x="0" y="10" fill="#64748B" font-size="9" font-family="system-ui, sans-serif">Retention</text>
    </g>
    <g transform="translate(490, 50)">
      <text x="0" y="10" fill="#64748B" font-size="9" font-family="system-ui, sans-serif">Engagement</text>
    </g>
  </g>

  <!-- Cascade arrows to domains -->
  <line x1="250" y1="410" x2="105" y2="450" stroke="#34D399" stroke-width="1.5" marker-end="url(#sc-arrow-green)"/>
  <line x1="350" y1="410" x2="265" y2="450" stroke="#34D399" stroke-width="1.5" marker-end="url(#sc-arrow-green)"/>
  <line x1="450" y1="410" x2="450" y2="450" stroke="#34D399" stroke-width="1.5" marker-end="url(#sc-arrow-green)"/>
  <line x1="550" y1="410" x2="635" y2="450" stroke="#34D399" stroke-width="1.5" marker-end="url(#sc-arrow-green)"/>
  <line x1="650" y1="410" x2="795" y2="450" stroke="#34D399" stroke-width="1.5" marker-end="url(#sc-arrow-green)"/>

  <!-- Domain Boxes -->
  <!-- Finance -->
  <g transform="translate(30, 455)">
    <rect width="150" height="90" fill="#1E293B" stroke="#334155" stroke-width="1" rx="10"/>
    <rect width="150" height="30" fill="#9B1C1C" rx="10"/>
    <rect y="20" width="150" height="10" fill="#9B1C1C"/>
    <text x="75" y="22" text-anchor="middle" fill="#FFFFFF" font-size="13" font-weight="600" font-family="system-ui, sans-serif">Finance</text>
    <text x="75" y="52" text-anchor="middle" fill="#F8FAFC" font-size="10" font-family="system-ui, sans-serif">CFO</text>
    <text x="75" y="68" text-anchor="middle" fill="#64748B" font-size="9" font-family="system-ui, sans-serif">FourthShift, Fabric</text>
    <text x="75" y="82" text-anchor="middle" fill="#64748B" font-size="9" font-family="system-ui, sans-serif">Financial Health</text>
  </g>

  <!-- Operations -->
  <g transform="translate(190, 455)">
    <rect width="150" height="90" fill="#1E293B" stroke="#334155" stroke-width="1" rx="10"/>
    <rect width="150" height="30" fill="#9B1C1C" rx="10"/>
    <rect y="20" width="150" height="10" fill="#9B1C1C"/>
    <text x="75" y="22" text-anchor="middle" fill="#FFFFFF" font-size="13" font-weight="600" font-family="system-ui, sans-serif">Operations</text>
    <text x="75" y="52" text-anchor="middle" fill="#F8FAFC" font-size="10" font-family="system-ui, sans-serif">COO</text>
    <text x="75" y="68" text-anchor="middle" fill="#64748B" font-size="9" font-family="system-ui, sans-serif">FourthShift, Plex</text>
    <text x="75" y="82" text-anchor="middle" fill="#64748B" font-size="9" font-family="system-ui, sans-serif">Op Excellence</text>
  </g>

  <!-- IT -->
  <g transform="translate(375, 455)">
    <rect width="150" height="90" fill="#1E293B" stroke="#60A5FA" stroke-width="2" rx="10"/>
    <rect width="150" height="30" fill="#9B1C1C" rx="10"/>
    <rect y="20" width="150" height="10" fill="#9B1C1C"/>
    <text x="75" y="22" text-anchor="middle" fill="#FFFFFF" font-size="13" font-weight="600" font-family="system-ui, sans-serif">IT</text>
    <text x="75" y="52" text-anchor="middle" fill="#F8FAFC" font-size="10" font-family="system-ui, sans-serif">CTO</text>
    <text x="75" y="68" text-anchor="middle" fill="#64748B" font-size="9" font-family="system-ui, sans-serif">Power BI, Fabric</text>
    <text x="75" y="82" text-anchor="middle" fill="#64748B" font-size="9" font-family="system-ui, sans-serif">Innovation</text>
  </g>

  <!-- Sales -->
  <g transform="translate(560, 455)">
    <rect width="150" height="90" fill="#1E293B" stroke="#334155" stroke-width="1" rx="10"/>
    <rect width="150" height="30" fill="#9B1C1C" rx="10"/>
    <rect y="20" width="150" height="10" fill="#9B1C1C"/>
    <text x="75" y="22" text-anchor="middle" fill="#FFFFFF" font-size="13" font-weight="600" font-family="system-ui, sans-serif">Sales</text>
    <text x="75" y="52" text-anchor="middle" fill="#F8FAFC" font-size="10" font-family="system-ui, sans-serif">CSO</text>
    <text x="75" y="68" text-anchor="middle" fill="#64748B" font-size="9" font-family="system-ui, sans-serif">BeFirst, Fabric</text>
    <text x="75" y="82" text-anchor="middle" fill="#64748B" font-size="9" font-family="system-ui, sans-serif">Customer Success</text>
  </g>

  <!-- Manufacturing -->
  <g transform="translate(720, 455)">
    <rect width="150" height="90" fill="#1E293B" stroke="#334155" stroke-width="1" rx="10"/>
    <rect width="150" height="30" fill="#9B1C1C" rx="10"/>
    <rect y="20" width="150" height="10" fill="#9B1C1C"/>
    <text x="75" y="22" text-anchor="middle" fill="#FFFFFF" font-size="13" font-weight="600" font-family="system-ui, sans-serif">Manufacturing</text>
    <text x="75" y="52" text-anchor="middle" fill="#F8FAFC" font-size="10" font-family="system-ui, sans-serif">Mfg Director</text>
    <text x="75" y="68" text-anchor="middle" fill="#64748B" font-size="9" font-family="system-ui, sans-serif">Plex, FourthShift</text>
    <text x="75" y="82" text-anchor="middle" fill="#64748B" font-size="9" font-family="system-ui, sans-serif">Op Excellence</text>
  </g>

  <!-- Bottom: Execution Layer -->
  <g transform="translate(100, 580)">
    <rect width="700" height="60" fill="#0F172A" stroke="#334155" stroke-width="1" rx="10"/>
    <text x="350" y="25" text-anchor="middle" fill="#94A3B8" font-size="14" font-weight="600" font-family="system-ui, sans-serif">EXECUTION LAYER</text>
    <text x="350" y="45" text-anchor="middle" fill="#64748B" font-size="11" font-family="system-ui, sans-serif">Projects  |  Initiatives  |  Daily Operations  |  Continuous Improvement</text>
  </g>

  <!-- Arrows from domains to execution -->
  <line x1="105" y1="545" x2="180" y2="580" stroke="#334155" stroke-width="1"/>
  <line x1="265" y1="545" x2="280" y2="580" stroke="#334155" stroke-width="1"/>
  <line x1="450" y1="545" x2="450" y2="580" stroke="#334155" stroke-width="1"/>
  <line x1="635" y1="545" x2="620" y2="580" stroke="#334155" stroke-width="1"/>
  <line x1="795" y1="545" x2="720" y2="580" stroke="#334155" stroke-width="1"/>

  <!-- Legend -->
  <g transform="translate(30, 655)">
    <rect width="15" height="15" fill="#9B1C1C" rx="2"/>
    <text x="22" y="12" fill="#94A3B8" font-size="10" font-family="system-ui, sans-serif">Strategic Direction</text>

    <rect x="140" width="15" height="15" fill="#60A5FA" rx="2"/>
    <text x="162" y="12" fill="#94A3B8" font-size="10" font-family="system-ui, sans-serif">Goals</text>

    <rect x="220" width="15" height="15" fill="#34D399" rx="2"/>
    <text x="242" y="12" fill="#94A3B8" font-size="10" font-family="system-ui, sans-serif">KPIs</text>

    <rect x="300" width="15" height="15" fill="#1E293B" stroke="#334155" stroke-width="1" rx="2"/>
    <text x="322" y="12" fill="#94A3B8" font-size="10" font-family="system-ui, sans-serif">Domain</text>
  </g>

  <!-- Safari Logo Mark -->
  <g transform="translate(830, 15)">
    <rect width="50" height="50" fill="#9B1C1C" rx="8"/>
    <text x="25" y="35" text-anchor="middle" fill="#FFFFFF" font-size="24" font-weight="700" font-family="system-ui, sans-serif">S</text>
  </g>

  <!-- Footer -->
  <text x="450" y="680" text-anchor="middle" fill="#475569" font-size="10" font-family="system-ui, sans-serif">Safari Circuits | Strategy Cascade to Business Domains</text>
</svg>
